<svg xmlns="http://www.w3.org/2000/svg"  viewBox="0 0 48 48" width="48px" height="48px"><path fill="#f55376" d="M24.5,10C15.387,10,8,17.387,8,26.5C8,35.613,15.387,43,24.5,43S41,35.613,41,26.5 C41,17.387,33.613,10,24.5,10z M24.5,39C17.596,39,12,33.404,12,26.5S17.596,14,24.5,14S37,19.596,37,26.5S31.404,39,24.5,39z"/><path fill="#f55376" d="M28,5L9,43h6l5.1-11H28v4h5V5H28z M28,27h-5.6L28,15V27z"/><path fill="#f55376" d="M33,36h-5V15l-5.6,12H28v-2l5,5l-5,4v-2h-7.9L15,43H9L28,5h5V36z"/><path fill="#eb0000" d="M23.474,14.052C23.813,14.024,24.154,14,24.5,14c3.287,0,6.269,1.279,8.5,3.353v-4.976 c-2.222-1.341-4.781-2.167-7.525-2.328L23.474,14.052z"/><path fill="#ff3d00" d="M33,35.647c-0.128,0.119-0.255,0.239-0.389,0.353H33V35.647z"/><path fill="#eb0000" d="M16.08,40.671l1.691-3.648c-1.55-0.993-2.862-2.318-3.844-3.877l-2.008,4.016 C13.098,38.551,14.506,39.734,16.08,40.671z"/><polygon fill="#eb0000" points="28,34 33,30 28,25"/></svg>